<svg width="171" height="171" viewBox="0 0 171 171" fill="none" xmlns="http://www.w3.org/2000/svg">
<g filter="url(#filter0_d_2_1267)">
<path fill-rule="evenodd" clip-rule="evenodd" d="M103.626 35.8673L86.868 27.9443C86.013 27.5453 85.044 27.5453 84.189 27.9443L67.374 35.8673C64.98 37.0073 63.897 39.9143 65.037 42.3083C65.835 44.0753 67.602 45.1013 69.426 45.1013C70.11 45.1013 70.794 44.9303 71.478 44.6453L80.655 40.3133V52.1123C80.655 54.7913 82.821 56.9573 85.5 56.9573C88.179 56.9573 90.345 54.7913 90.345 52.1123V40.3133L99.522 44.6453C101.916 45.7853 104.823 44.7593 105.963 42.3083C107.103 39.8573 106.077 37.0073 103.626 35.8673ZM99.5221 68.5283L85.5001 75.1403L71.4781 68.5283C69.0841 67.3883 66.1771 68.4143 65.0371 70.8653C63.8971 73.2593 64.9231 76.1663 67.3741 77.3063L80.4841 83.4623C80.4841 83.5763 80.4556 83.676 80.4271 83.7758C80.3986 83.8755 80.3701 83.9753 80.3701 84.0893V95.9453C80.3701 98.6243 82.5361 100.79 85.2151 100.79C87.8941 100.79 90.0601 98.6243 90.0601 95.9453V84.0893C90.0601 84.0323 90.0458 83.9753 90.0316 83.9183C90.0173 83.8613 90.0031 83.8043 90.0031 83.7473L103.683 77.3063C106.077 76.1663 107.16 73.2593 106.02 70.8653C104.823 68.4713 101.916 67.3883 99.5221 68.5283ZM121.695 44.7593L136.686 51.9413C137.826 52.4543 138.51 53.5943 138.51 54.7913V72.0623C138.51 74.7413 136.344 76.9073 133.665 76.9073C130.986 76.9073 128.82 74.7413 128.82 72.0623V65.6783L120.897 69.3833C120.213 69.6683 119.529 69.8393 118.845 69.8393C117.021 69.8393 115.254 68.8133 114.456 67.0463C113.316 64.6523 114.399 61.7453 116.793 60.6053L124.659 56.9003L117.534 53.4803C115.14 52.3403 114.114 49.4333 115.254 47.0393C116.394 44.6453 119.301 43.6193 121.695 44.7593ZM54.2071 60.6053L46.3411 56.9003L53.466 53.4803C55.8601 52.3403 56.8861 49.4333 55.7461 47.0393C54.606 44.5883 51.6991 43.5623 49.305 44.7593L34.3141 51.9413C33.1741 52.4543 32.4901 53.5943 32.4901 54.7913V72.0053C32.4901 74.6843 34.6561 76.8503 37.3351 76.8503C40.014 76.8503 42.18 74.7413 42.18 72.0623V65.6213L50.1031 69.3263C50.787 69.6683 51.4711 69.8393 52.1551 69.8393C53.979 69.8393 55.746 68.8133 56.544 67.0463C57.684 64.6523 56.6581 61.7453 54.2071 60.6053ZM128.82 99.8213C128.82 97.1423 130.986 94.9763 133.665 94.9763C136.344 94.9763 138.51 97.1423 138.567 99.8213V117.035C138.567 118.289 137.826 119.429 136.743 119.942L121.752 127.124C121.068 127.409 120.327 127.58 119.643 127.58C117.819 127.58 116.109 126.554 115.254 124.844C114.114 122.45 115.14 119.543 117.534 118.403L124.659 114.983L116.793 111.278C114.342 110.138 113.316 107.288 114.456 104.837C115.596 102.386 118.503 101.36 120.897 102.5L128.82 106.205V99.8213ZM56.544 104.78C55.404 102.386 52.4971 101.303 50.1031 102.443L42.18 106.205V99.8213C42.18 97.1423 40.014 94.9763 37.3351 94.9763C34.6561 94.9763 32.4901 97.1423 32.4901 99.8213V117.092C32.4901 118.289 33.1741 119.429 34.2571 119.942L49.2481 127.124C49.9321 127.466 50.6161 127.58 51.3571 127.58C53.181 127.58 54.891 126.554 55.7461 124.844C56.8861 122.45 55.8601 119.543 53.466 118.403L46.3411 114.983L54.2071 111.278C56.6581 110.138 57.684 107.231 56.544 104.78ZM90.3451 130.772L99.5221 126.44C101.916 125.3 104.823 126.326 105.963 128.777C107.103 131.171 106.02 134.078 103.626 135.218L86.8681 143.084C86.0131 143.483 84.9871 143.483 84.1321 143.084L67.3741 135.218C64.9231 134.078 63.8971 131.171 65.0371 128.777C66.1771 126.326 69.0841 125.3 71.4781 126.44L80.6551 130.772V118.973C80.6551 116.294 82.8211 114.128 85.5001 114.128C88.1791 114.128 90.3451 116.294 90.3451 118.973V130.772Z" fill="#FF9900"/>
</g>
<defs>
<filter id="filter0_d_2_1267" x="-4" y="0" width="179" height="179" filterUnits="userSpaceOnUse" color-interpolation-filters="sRGB">
<feFlood flood-opacity="0" result="BackgroundImageFix"/>
<feColorMatrix in="SourceAlpha" type="matrix" values="0 0 0 0 0 0 0 0 0 0 0 0 0 0 0 0 0 0 127 0" result="hardAlpha"/>
<feOffset dy="4"/>
<feGaussianBlur stdDeviation="2"/>
<feComposite in2="hardAlpha" operator="out"/>
<feColorMatrix type="matrix" values="0 0 0 0 0 0 0 0 0 0 0 0 0 0 0 0 0 0 0.25 0"/>
<feBlend mode="normal" in2="BackgroundImageFix" result="effect1_dropShadow_2_1267"/>
<feBlend mode="normal" in="SourceGraphic" in2="effect1_dropShadow_2_1267" result="shape"/>
</filter>
</defs>
</svg>
